<svg width="32" height="32" viewBox="0 0 32 32" fill="none" xmlns="http://www.w3.org/2000/svg">
<path fill-rule="evenodd" clip-rule="evenodd" d="M12.3481 17.4029C13.1229 16.6282 13.1229 15.3718 12.3481 14.5971L6.45799 8.70698C5.83692 8.08591 5.83692 7.07896 6.458 6.45789C7.07906 5.83681 8.08602 5.83681 8.7071 6.45789L14.5972 12.3479C15.3719 13.1228 16.6283 13.1228 17.403 12.3479L23.2931 6.45788C23.9142 5.83681 24.9212 5.83681 25.5422 6.45788C26.1633 7.07896 26.1633 8.08591 25.5422 8.70699L19.6522 14.5971C18.8773 15.3718 18.8773 16.6282 19.6522 17.4029L25.5422 23.293C26.1633 23.9141 26.1633 24.9211 25.5422 25.5421C24.9212 26.1632 23.9142 26.1632 23.2931 25.5421L17.403 19.6521C16.6283 18.8772 15.3719 18.8772 14.5972 19.6521L8.70709 25.5421C8.08602 26.1632 7.07906 26.1632 6.45799 25.5421C5.83692 24.9211 5.83692 23.9141 6.458 23.293L12.3481 17.4029Z" fill="white"/>
</svg>
